<mxfile host="app.diagrams.net" modified="2022-11-02T14:24:56.540Z" agent="5.0 (Windows NT 10.0; Win64; x64) AppleWebKit/537.36 (KHTML, like Gecko) Chrome/106.0.0.0 Safari/537.36" etag="chpg7DbNVHgnzOC_K4wv" version="20.3.6" type="github">
  <diagram name="Page-1" id="b5b7bab2-c9e2-2cf4-8b2a-24fd1a2a6d21">
    <mxGraphModel dx="1185" dy="635" grid="1" gridSize="10" guides="1" tooltips="1" connect="1" arrows="1" fold="1" page="1" pageScale="1" pageWidth="827" pageHeight="1169" background="none" math="0" shadow="0">
      <root>
        <mxCell id="0" />
        <mxCell id="1" parent="0" />
        <mxCell id="fPdkNQdoLEXpVAgpaV0J-25" value="&lt;span style=&quot;font-weight: 700; text-align: center;&quot;&gt;Подсистема за поръчки&lt;/span&gt;" style="shape=umlFrame;whiteSpace=wrap;html=1;width=120;height=30;boundedLbl=1;verticalAlign=middle;align=left;spacingLeft=5;fontSize=10;fillColor=none;" vertex="1" parent="1">
          <mxGeometry x="140" y="210" width="490" height="360" as="geometry" />
        </mxCell>
        <mxCell id="fPdkNQdoLEXpVAgpaV0J-14" style="edgeStyle=orthogonalEdgeStyle;rounded=0;orthogonalLoop=1;jettySize=auto;html=1;entryX=0;entryY=0.5;entryDx=0;entryDy=0;" edge="1" parent="1" source="fPdkNQdoLEXpVAgpaV0J-10" target="fPdkNQdoLEXpVAgpaV0J-12">
          <mxGeometry relative="1" as="geometry" />
        </mxCell>
        <mxCell id="fPdkNQdoLEXpVAgpaV0J-30" style="edgeStyle=orthogonalEdgeStyle;rounded=0;orthogonalLoop=1;jettySize=auto;html=1;entryX=-0.002;entryY=0.569;entryDx=0;entryDy=0;entryPerimeter=0;fontSize=10;" edge="1" parent="1" source="fPdkNQdoLEXpVAgpaV0J-10" target="fPdkNQdoLEXpVAgpaV0J-17">
          <mxGeometry relative="1" as="geometry" />
        </mxCell>
        <mxCell id="fPdkNQdoLEXpVAgpaV0J-34" style="edgeStyle=orthogonalEdgeStyle;rounded=0;orthogonalLoop=1;jettySize=auto;html=1;entryX=0;entryY=0.5;entryDx=0;entryDy=0;fontSize=10;" edge="1" parent="1" source="fPdkNQdoLEXpVAgpaV0J-10" target="fPdkNQdoLEXpVAgpaV0J-33">
          <mxGeometry relative="1" as="geometry" />
        </mxCell>
        <mxCell id="fPdkNQdoLEXpVAgpaV0J-10" value="Actor" style="shape=umlActor;verticalLabelPosition=bottom;verticalAlign=top;html=1;" vertex="1" parent="1">
          <mxGeometry x="70" y="370" width="30" height="60" as="geometry" />
        </mxCell>
        <mxCell id="fPdkNQdoLEXpVAgpaV0J-12" value="Преглед на списък с поръчки" style="ellipse;whiteSpace=wrap;html=1;" vertex="1" parent="1">
          <mxGeometry x="205" y="240" width="140" height="70" as="geometry" />
        </mxCell>
        <mxCell id="fPdkNQdoLEXpVAgpaV0J-17" value="Преглед на детайлна информация за определена поръчка" style="ellipse;whiteSpace=wrap;html=1;fontSize=10;fillColor=none;" vertex="1" parent="1">
          <mxGeometry x="205" y="360" width="140" height="70" as="geometry" />
        </mxCell>
        <mxCell id="fPdkNQdoLEXpVAgpaV0J-29" value="&amp;lt;&amp;lt;include&amp;gt;&amp;gt;" style="html=1;verticalAlign=bottom;labelBackgroundColor=none;endArrow=open;endFill=0;dashed=1;rounded=0;fontSize=10;exitX=0.497;exitY=1.049;exitDx=0;exitDy=0;entryX=0.5;entryY=0;entryDx=0;entryDy=0;exitPerimeter=0;" edge="1" parent="1" source="fPdkNQdoLEXpVAgpaV0J-12" target="fPdkNQdoLEXpVAgpaV0J-17">
          <mxGeometry x="-0.0606" width="160" relative="1" as="geometry">
            <mxPoint x="280" y="340" as="sourcePoint" />
            <mxPoint x="440" y="340" as="targetPoint" />
            <mxPoint as="offset" />
          </mxGeometry>
        </mxCell>
        <mxCell id="fPdkNQdoLEXpVAgpaV0J-31" value="Изпращане на промяна или анулиране нa поръчка" style="ellipse;whiteSpace=wrap;html=1;fontSize=10;fillColor=none;" vertex="1" parent="1">
          <mxGeometry x="480" y="240" width="140" height="70" as="geometry" />
        </mxCell>
        <mxCell id="fPdkNQdoLEXpVAgpaV0J-32" value="Extends" style="endArrow=block;endSize=16;endFill=0;html=1;rounded=0;fontSize=10;exitX=1;exitY=0.5;exitDx=0;exitDy=0;entryX=0;entryY=0.5;entryDx=0;entryDy=0;" edge="1" parent="1" source="fPdkNQdoLEXpVAgpaV0J-12" target="fPdkNQdoLEXpVAgpaV0J-31">
          <mxGeometry width="160" relative="1" as="geometry">
            <mxPoint x="280" y="480" as="sourcePoint" />
            <mxPoint x="440" y="480" as="targetPoint" />
          </mxGeometry>
        </mxCell>
        <mxCell id="fPdkNQdoLEXpVAgpaV0J-33" value="Регистриране на нова поръчка" style="ellipse;whiteSpace=wrap;html=1;fontSize=10;fillColor=none;" vertex="1" parent="1">
          <mxGeometry x="205" y="470" width="140" height="70" as="geometry" />
        </mxCell>
        <mxCell id="fPdkNQdoLEXpVAgpaV0J-42" style="edgeStyle=orthogonalEdgeStyle;rounded=0;orthogonalLoop=1;jettySize=auto;html=1;entryX=1;entryY=0.5;entryDx=0;entryDy=0;fontSize=10;" edge="1" parent="1" source="fPdkNQdoLEXpVAgpaV0J-35" target="fPdkNQdoLEXpVAgpaV0J-40">
          <mxGeometry relative="1" as="geometry">
            <Array as="points">
              <mxPoint x="860" y="400" />
              <mxPoint x="860" y="295" />
            </Array>
          </mxGeometry>
        </mxCell>
        <mxCell id="fPdkNQdoLEXpVAgpaV0J-46" style="edgeStyle=orthogonalEdgeStyle;rounded=0;orthogonalLoop=1;jettySize=auto;html=1;entryX=1;entryY=0.5;entryDx=0;entryDy=0;fontSize=10;" edge="1" parent="1" source="fPdkNQdoLEXpVAgpaV0J-35" target="fPdkNQdoLEXpVAgpaV0J-45">
          <mxGeometry relative="1" as="geometry">
            <Array as="points">
              <mxPoint x="860" y="400" />
              <mxPoint x="860" y="495" />
            </Array>
          </mxGeometry>
        </mxCell>
        <mxCell id="fPdkNQdoLEXpVAgpaV0J-35" value="Actor" style="shape=umlActor;verticalLabelPosition=bottom;verticalAlign=top;html=1;fontSize=10;fillColor=none;" vertex="1" parent="1">
          <mxGeometry x="910" y="370" width="30" height="60" as="geometry" />
        </mxCell>
        <mxCell id="fPdkNQdoLEXpVAgpaV0J-37" value="&lt;span style=&quot;font-weight: 700; text-align: center;&quot;&gt;Подсистема за доставки&lt;/span&gt;" style="shape=umlFrame;whiteSpace=wrap;html=1;width=120;height=30;boundedLbl=1;verticalAlign=middle;align=left;spacingLeft=5;fontSize=10;fillColor=none;" vertex="1" parent="1">
          <mxGeometry x="670" y="210" width="170" height="360" as="geometry" />
        </mxCell>
        <mxCell id="fPdkNQdoLEXpVAgpaV0J-38" value="Преглед на доставки към съответна поръчка" style="ellipse;whiteSpace=wrap;html=1;fontSize=10;fillColor=none;" vertex="1" parent="1">
          <mxGeometry x="687" y="360" width="140" height="70" as="geometry" />
        </mxCell>
        <mxCell id="fPdkNQdoLEXpVAgpaV0J-39" value="&amp;lt;&amp;lt;include&amp;gt;&amp;gt;" style="html=1;verticalAlign=bottom;labelBackgroundColor=none;endArrow=open;endFill=0;dashed=1;rounded=0;fontSize=10;exitX=1;exitY=0.5;exitDx=0;exitDy=0;entryX=0;entryY=0.5;entryDx=0;entryDy=0;" edge="1" parent="1" source="fPdkNQdoLEXpVAgpaV0J-17" target="fPdkNQdoLEXpVAgpaV0J-38">
          <mxGeometry width="160" relative="1" as="geometry">
            <mxPoint x="670" y="330" as="sourcePoint" />
            <mxPoint x="830" y="330" as="targetPoint" />
          </mxGeometry>
        </mxCell>
        <mxCell id="fPdkNQdoLEXpVAgpaV0J-40" value="Преглед на информация за назначена доставка" style="ellipse;whiteSpace=wrap;html=1;fontSize=10;fillColor=none;" vertex="1" parent="1">
          <mxGeometry x="687" y="260" width="140" height="70" as="geometry" />
        </mxCell>
        <mxCell id="fPdkNQdoLEXpVAgpaV0J-45" value="Изпращане на актуализации за доставка" style="ellipse;whiteSpace=wrap;html=1;fontSize=10;fillColor=none;" vertex="1" parent="1">
          <mxGeometry x="685" y="460" width="140" height="70" as="geometry" />
        </mxCell>
      </root>
    </mxGraphModel>
  </diagram>
</mxfile>
